<?xml version="1.0" encoding="UTF-8"?>
<!DOCTYPE svg  PUBLIC '-//W3C//DTD SVG 20010904//EN'  'http://www.w3.org/TR/2001/REC-SVG-20010904/DTD/svg10.dtd'>
<svg width="344pt" height="344pt" version="1.0" viewBox="0 0 344.000000 344.000000" xmlns="http://www.w3.org/2000/svg">
<g transform="translate(0 344) scale(.1 -.1)" fill="#fff">
<path d="m1585 3144c-196-28-307-58-450-121-369-162-670-504-784-890-42-143-55-242-55-413 0-329 88-599 280-855 521-697 1545-769 2155-153 231 233 368 517 409 848 60 489-161 1002-560 1301-184 137-373 220-600 264-82 16-333 28-395 19zm355-180c385-67 727-320 905-669 93-182 136-364 136-575 0-153-17-259-62-397-144-437-519-762-979-848-111-21-328-21-440 0-263 49-480 164-671 354-151 152-249 310-312 506-79 244-78 546 3 785 104 307 337 578 625 725 245 125 523 166 795 119z"/>
<path d="m1606 1985c-161-121-292-227-298-240-8-19-8-31 0-50 6-13 137-119 298-240 310-232 322-238 369-190 32 31 32 66 1 102-13 15-121 100-240 188-118 88-215 162-215 165s97 77 215 165c119 88 227 173 240 188 31 36 31 71-1 102-47 48-59 42-369-190z"/>
</g>
</svg>
